<?xml version="1.0" encoding="UTF-8" standalone="no"?>
<!-- Created with Inkscape (http://www.inkscape.org/) -->

<svg
   xmlns:dc="http://purl.org/dc/elements/1.1/"
   xmlns:cc="http://creativecommons.org/ns#"
   xmlns:rdf="http://www.w3.org/1999/02/22-rdf-syntax-ns#"
   xmlns:svg="http://www.w3.org/2000/svg"
   xmlns="http://www.w3.org/2000/svg"
   xmlns:sodipodi="http://sodipodi.sourceforge.net/DTD/sodipodi-0.dtd"
   xmlns:inkscape="http://www.inkscape.org/namespaces/inkscape"
   width="112.91492mm"
   height="53.637947mm"
   viewBox="0 0 400.09223 190.05572"
   id="svg2"
   version="1.1"
   inkscape:version="0.91 r13725"
   sodipodi:docname="logo.svg">
  <defs
     id="defs4" />
  <sodipodi:namedview
     id="base"
     pagecolor="#ffffff"
     bordercolor="#666666"
     borderopacity="1.0"
     inkscape:pageopacity="0.0"
     inkscape:pageshadow="2"
     inkscape:zoom="0.7"
     inkscape:cx="329.50973"
     inkscape:cy="-72.89013"
     inkscape:document-units="px"
     inkscape:current-layer="layer1"
     showgrid="false"
     inkscape:window-width="2560"
     inkscape:window-height="1377"
     inkscape:window-x="2552"
     inkscape:window-y="-8"
     inkscape:window-maximized="1"
     fit-margin-top="0"
     fit-margin-left="0"
     fit-margin-right="0"
     fit-margin-bottom="0" />
  <metadata
     id="metadata7">
    <rdf:RDF>
      <cc:Work
         rdf:about="">
        <dc:format>image/svg+xml</dc:format>
        <dc:type
           rdf:resource="http://purl.org/dc/dcmitype/StillImage" />
        <dc:title></dc:title>
      </cc:Work>
    </rdf:RDF>
  </metadata>
  <g
     inkscape:label="Layer 1"
     inkscape:groupmode="layer"
     id="layer1"
     transform="translate(-192.09673,-425.50503)">
    <path
       d="m 193.53839,613.25503 c 0.79291,-1.2375 1.97537,-4.275 2.6277,-6.75 0.65232,-2.475 6.50932,-21.65444 13.01554,-42.62098 6.50623,-20.96655 12.39379,-40.85296 13.08346,-44.19204 l 1.25396,-6.07104 -12.68811,-40.34981 c -6.97845,-22.1924 -12.6881,-40.75636 -12.6881,-41.25325 0,-0.49689 -1.20919,-2.16557 -2.68709,-3.70816 l -2.68709,-2.80472 7.34208,0 c 7.15135,0 7.29738,0.0494 5.62165,1.90105 -1.64026,1.81246 -1.31579,3.19888 6.96243,29.75 9.32255,29.90068 12.76612,38.34895 15.63125,38.34895 1.74677,0 4.81677,-4.63016 4.81677,-7.26463 0,-0.75017 2.475,-9.30535 5.5,-19.01151 3.025,-9.70615 5.5,-19.33341 5.5,-21.39391 l 0,-3.74637 4.55575,4.45821 c 3.76627,3.68563 4.2287,4.50976 2.66843,4.75569 -1.54612,0.2437 -3.57094,5.70917 -11.20011,30.23184 -8.58885,27.6074 -9.26572,30.3846 -8.70739,35.72643 0.91341,8.73898 26.95952,90.84489 29.76602,93.83227 l 2.26593,2.41198 -6.36545,0 c -5.68308,0 -6.16141,-0.14919 -4.46217,-1.39171 1.8331,-1.34039 1.48901,-2.71394 -9.33143,-37.25 -17.54402,-55.99602 -15.8754,-51.24641 -16.98829,-48.35597 -1.3781,3.57925 -25.20129,80.49843 -25.20129,81.36871 0,0.39846 1.19071,1.82798 2.64602,3.17672 l 2.64603,2.45225 -7.16908,0 -7.16908,0 1.44166,-2.25 z m 90.6386,-1.71585 c -10.89626,-10.89626 -17.03956,-35.30691 -17.02826,-67.66249 0.009,-25.39863 2.98476,-42.33151 10.01062,-56.96075 4.78469,-9.96269 10.27715,-15.41091 15.53603,-15.41091 7.25661,0 12.13966,4.54276 17.27273,16.06904 6.37012,14.30406 9.16294,31.19918 9.16294,55.43096 0,33.2455 -6.59526,58.58819 -17.90664,68.80734 -3.43526,3.10355 -4.80478,3.69266 -8.58445,3.69266 -3.90685,0 -5.01766,-0.52054 -8.46297,-3.96585 z m 15.57393,-17.55132 c 3.45728,-3.45728 7.17862,-12.25324 9.72344,-22.98283 1.87091,-7.88821 2.13414,-11.96476 2.13089,-33 -0.003,-21.63245 -0.22758,-24.8876 -2.27311,-32.99762 -4.19446,-16.62994 -9.65147,-25.50238 -15.68526,-25.50238 -5.09384,0 -9.11967,4.70222 -12.59517,14.71132 -4.00793,11.54244 -5.0331,18.58399 -5.5999,38.46376 -0.72745,25.5145 1.7247,42.87611 7.7891,55.14812 4.22263,8.54498 11.43415,11.23548 16.51001,6.15963 z m 27.28909,20.14107 c 0.82059,-0.98875 1.12526,-13.97277 1.08236,-46.12658 -0.0328,-24.61277 0.10008,-44.91026 0.29536,-45.10555 0.19529,-0.19528 2.10465,1.43668 4.24303,3.62659 2.13839,2.1899 3.34665,3.98164 2.68503,3.98164 -0.71976,0 -1.20295,1.481 -1.20295,3.68709 l 0,3.68709 2.75,-2.62814 c 7.36096,-7.03477 20.53257,-8.90115 29.8944,-4.23595 8.90076,4.43543 14.68053,13.75571 14.15488,22.82574 l -0.29928,5.16417 -2.3546,-4.73825 c -4.66905,-9.39568 -13.46675,-14.70429 -24.42752,-14.73979 -7.52052,-0.0244 -11.61248,1.32127 -16.46788,5.4154 l -3.25,2.74043 0,32.7111 c 0,24.10864 0.31558,33.02669 1.2,33.91111 0.93333,0.93333 0.0172,1.2 -4.12244,1.2 -4.4047,0 -5.12552,-0.23728 -4.18039,-1.3761 z m 39.88144,-29.23642 c 0.20008,-21.9853 -0.0458,-31.00451 -0.87245,-32.00055 -0.89552,-1.07904 -0.81387,-1.38693 0.3678,-1.38693 1.97576,0 8.39876,7.27576 6.87221,7.78461 -0.78865,0.26288 -1.14617,4.74072 -1.14617,14.35543 l 0,13.97337 2.22251,-1.55671 c 3.42648,-2.4 9.02584,-1.98264 12.14165,0.90499 3.41052,3.16076 4.63584,6.47482 4.63584,12.53831 0,5.97311 -1.31952,9.65333 -4.75071,13.25 -3.09407,3.24329 -8.43181,3.71132 -12.20286,1.06997 -2.2463,-1.57337 -2.35765,-1.57337 -1.75389,0 0.52145,1.35887 0.0294,1.68013 -2.57392,1.68058 l -3.21862,5.4e-4 0.27861,-30.61361 z m 16.66469,22.39001 c 0.85618,-1.22237 1.5567,-4.04725 1.5567,-6.27749 0,-5.5785 -2.23409,-8.5 -6.5,-8.5 -4.26591,0 -6.5,2.9215 -6.5,8.5 0,5.5785 2.23409,8.5 6.5,8.5 2.36599,0 3.85573,-0.66979 4.9433,-2.22251 z m 17.59751,5.60339 c -4.43445,-3.73134 -6.04081,-7.45242 -6.04081,-13.99336 0,-6.17943 3.26812,-13.39028 6.96563,-15.36913 8.02154,-4.29299 19.03437,3.47841 19.03437,13.43195 l 0,3.54966 -10,0 c -10,0 -10,0 -10,2.5 0,3.56117 3.3356,6.5 7.37756,6.5 3.49884,0 6.27596,-2.13357 5.14951,-3.9562 -1.06886,-1.72945 1.05024,-1.17302 2.68944,0.7062 0.83957,0.9625 2.07801,2.81457 2.7521,4.1157 1.00278,1.93561 0.98069,2.28091 -0.1215,1.89933 -0.74091,-0.2565 -2.4203,0.36643 -3.73197,1.3843 -3.63876,2.82371 -10.23319,2.46366 -14.07433,-0.76845 z m 12.71768,-18.63088 c -1.91771,-2.90472 -7.23505,-3.53368 -9.85203,-1.16535 -3.10425,2.80931 -2.26749,3.41535 4.71551,3.41535 l 6.62197,0 -1.48545,-2.25 z m 35.04151,20.05 c 0.88442,-0.88442 1.2,-9.80247 1.2,-33.91111 l 0,-32.7111 -3.25,-2.74043 c -4.8554,-4.09413 -8.94736,-5.43975 -16.46788,-5.4154 -10.96077,0.0355 -19.75847,5.34411 -24.42752,14.73979 l -2.3546,4.73825 -0.29928,-5.16417 c -0.52565,-9.07003 5.25412,-18.39031 14.15488,-22.82574 9.36183,-4.6652 22.53344,-2.79882 29.8944,4.23595 l 2.75,2.62814 0,-3.68709 c 0,-2.20609 -0.48319,-3.68709 -1.20295,-3.68709 -0.66162,0 0.54664,-1.79174 2.68503,-3.98164 2.13838,-2.18991 4.04774,-3.82187 4.24303,-3.62659 0.19528,0.19529 0.32819,20.49278 0.29536,45.10555 -0.0429,32.15381 0.26177,45.13783 1.08236,46.12658 0.94513,1.13882 0.22431,1.3761 -4.18039,1.3761 -4.13967,0 -5.05577,-0.26667 -4.12244,-1.2 z m 37.41332,-1.41228 c -6.40414,-5.04683 -12.01582,-19.69295 -14.78787,-38.59537 -2.10922,-14.38256 -1.56115,-46.97958 1.00303,-59.6563 4.23827,-20.95307 12.48974,-35.13605 20.44168,-35.13605 4.61944,0 7.0908,1.71588 11.02411,7.65409 l 3.10573,4.6888 0,-6.14006 c 0,-5.33833 -0.21927,-6.05592 -1.67928,-5.49566 -1.45064,0.55666 -1.4166,0.28566 0.25,-1.9904 2.06851,-2.82494 8.05797,-5.73602 11.69952,-5.68636 1.99555,0.0272 2.04595,0.13747 0.47976,1.04969 -1.63976,0.95507 -1.75,5.34194 -1.75,69.64085 0,62.44977 0.14885,68.78604 1.65499,70.45031 1.5899,1.75682 1.34785,1.82874 -6.15499,1.82874 -7.50284,0 -7.74489,-0.0719 -6.15499,-1.82874 1.00816,-1.11401 1.65499,-3.53553 1.65499,-6.19578 l 0,-4.36704 -2.89567,4.566 c -1.59262,2.5113 -3.94275,5.29941 -5.22251,6.19578 -3.50449,2.45465 -8.83118,2.04154 -12.6685,-0.9825 z m 13.58057,-18.80576 c 1.6506,-1.87992 3.96219,-5.98683 5.13688,-9.12647 2.06588,-5.52157 2.12652,-6.97275 1.85251,-44.33196 l -0.28328,-38.62353 -2.62445,-5.5 c -3.56153,-7.4638 -6.17659,-10 -10.31091,-10 -6.13439,0 -11.41943,8.6694 -15.19708,24.92877 -2.45934,10.58525 -2.99271,42.65278 -0.916,55.0724 2.3909,14.29861 6.15033,24.60072 10.60162,29.05201 3.19782,3.19782 8.19056,2.57219 11.74071,-1.47122 z m 23.12342,19.00606 c 2.80649,-2.98738 28.8526,-85.09329 29.76601,-93.83227 0.55833,-5.34183 -0.11854,-8.11903 -8.70739,-35.72643 -7.62917,-24.52267 -9.65398,-29.98814 -11.20011,-30.23184 -1.56027,-0.24593 -1.09784,-1.07006 2.66843,-4.75569 l 4.55575,-4.45821 0,3.74637 c 0,2.0605 2.475,11.68776 5.5,21.39391 3.025,9.70616 5.5,18.26134 5.5,19.01151 0,2.63447 3.07,7.26463 4.81677,7.26463 2.86513,0 6.3087,-8.44827 15.63125,-38.34895 8.27822,-26.55112 8.60269,-27.93754 6.96243,-29.75 -1.67573,-1.85167 -1.5297,-1.90105 5.62165,-1.90105 l 7.34208,0 -2.68709,2.80472 c -1.4779,1.54259 -2.68709,3.21127 -2.68709,3.70816 0,0.49689 -5.70965,19.06085 -12.6881,41.25325 l -12.68811,40.34981 1.25396,6.07104 c 0.68967,3.33908 6.57723,23.22549 13.08346,44.19204 6.50623,20.96654 12.36322,40.14598 13.01554,42.62098 0.65233,2.475 1.83479,5.5125 2.6277,6.75 l 1.44166,2.25 -7.16908,0 -7.16908,0 2.64603,-2.45225 c 1.45531,-1.34874 2.64602,-2.77826 2.64602,-3.17672 0,-0.87028 -23.8232,-77.78946 -25.20129,-81.36871 -1.11289,-2.89044 0.55573,-7.64005 -16.98829,48.35597 -10.82044,34.53606 -11.16453,35.90961 -9.33143,37.25 1.69924,1.24252 1.22091,1.39171 -4.46217,1.39171 l -6.36545,0 2.26594,-2.41198 z"
       id="path3355"
       inkscape:connector-curvature="0" />
  </g>
</svg>
