<?xml version="1.0" standalone="no"?>
<!DOCTYPE svg PUBLIC "-//W3C//DTD SVG 20010904//EN"
 "http://www.w3.org/TR/2001/REC-SVG-20010904/DTD/svg10.dtd">
<svg version="1.0" xmlns="http://www.w3.org/2000/svg"
 width="1520.000000pt" height="1520.000000pt" viewBox="0 0 1520.000000 1520.000000"
 preserveAspectRatio="xMidYMid meet">
<metadata>
Created by potrace 1.11, written by Peter Selinger 2001-2013
</metadata>
<g transform="translate(0.000000,1520.000000) scale(0.100000,-0.100000)"
fill="#000000" stroke="none">
<path d="M4825 15179 c11 -12 45 -48 75 -79 257 -265 322 -357 355 -505 3 -11
16 -58 31 -105 43 -143 90 -300 123 -410 64 -210 93 -305 98 -320 4 -8 5 -19
4 -24 -1 -4 2 -13 7 -20 5 -6 15 -33 21 -61 7 -27 17 -59 22 -70 7 -16 40
-125 44 -145 1 -6 6 -20 72 -230 30 -96 57 -181 58 -190 2 -8 4 -15 5 -15 1 0
3 -7 5 -15 3 -16 53 -176 62 -200 3 -8 7 -19 8 -25 2 -5 24 -77 50 -160 61
-198 133 -428 153 -490 9 -27 16 -52 17 -55 2 -8 20 -65 55 -175 17 -55 33
-107 35 -115 2 -8 13 -42 23 -75 11 -33 39 -121 62 -195 23 -74 45 -146 50
-160 5 -14 27 -86 50 -160 23 -74 44 -142 47 -150 4 -8 7 -17 8 -20 0 -3 11
-39 24 -80 13 -41 24 -80 25 -87 1 -7 5 -16 9 -19 4 -4 7 -18 7 -31 0 -12 4
-23 10 -23 5 0 9 -3 8 -7 -2 -10 15 -69 57 -203 107 -335 145 -458 145 -468 0
-7 4 -20 10 -30 7 -13 61 -179 65 -202 0 -3 20 -66 44 -140 23 -74 47 -151 53
-170 6 -19 14 -44 19 -55 4 -11 22 -67 39 -125 17 -58 38 -122 45 -143 8 -20
15 -38 14 -40 0 -1 2 -9 5 -17 15 -47 30 -97 33 -107 2 -7 4 -19 6 -25 2 -7
26 -85 54 -173 29 -88 57 -180 64 -205 7 -25 16 -49 20 -55 3 -5 10 -26 15
-45 10 -43 9 -41 17 -60 31 -78 101 -324 101 -355 0 -34 -10 -110 -14 -110 -1
0 -3 -10 -6 -22 -2 -13 -6 -33 -8 -45 -3 -13 -5 -23 -6 -23 -1 0 -3 -9 -5 -20
-3 -22 -8 -47 -24 -115 -5 -25 -13 -61 -16 -80 -10 -61 -35 -161 -66 -275 -17
-60 -32 -117 -35 -125 -7 -31 -35 -135 -38 -145 -2 -5 -5 -13 -6 -17 -10 -32
-52 -177 -55 -193 -3 -11 -9 -31 -14 -45 -5 -14 -17 -52 -26 -85 -9 -33 -19
-67 -22 -75 -3 -8 -7 -19 -8 -25 -2 -5 -8 -30 -16 -55 -7 -25 -14 -49 -15 -55
-2 -5 -10 -35 -19 -65 -9 -30 -18 -64 -21 -75 -13 -51 -44 -158 -51 -175 -8
-19 -7 -16 -22 -70 -7 -25 -19 -65 -28 -90 -8 -25 -16 -52 -18 -60 -2 -8 -24
-85 -50 -170 -26 -85 -73 -243 -105 -350 -32 -107 -99 -328 -150 -490 -50
-162 -92 -299 -94 -305 -1 -5 -11 -37 -21 -70 -10 -33 -19 -64 -21 -70 -1 -5
-23 -77 -49 -160 -53 -171 -72 -231 -80 -260 -22 -73 -151 -494 -231 -750 -21
-66 -39 -124 -40 -130 -2 -13 -34 -115 -42 -135 -7 -19 -7 -18 -16 -60 -5 -19
-11 -39 -14 -45 -4 -5 -7 -14 -9 -20 -3 -15 -36 -125 -78 -255 -20 -63 -38
-122 -40 -130 -2 -8 -13 -46 -25 -85 -13 -38 -23 -74 -24 -80 -2 -5 -15 -48
-30 -95 -15 -47 -29 -92 -31 -100 -2 -8 -10 -35 -18 -60 -16 -48 -51 -160 -87
-280 -12 -41 -28 -93 -36 -116 -7 -22 -31 -103 -54 -180 -23 -76 -50 -166 -61
-199 -11 -33 -22 -67 -24 -76 -2 -9 -13 -47 -25 -85 -31 -98 -71 -236 -75
-257 -2 -9 -7 -22 -10 -27 -3 -5 -8 -18 -10 -28 -4 -23 -104 -362 -112 -382
-3 -8 -8 -24 -10 -35 -5 -31 -55 -168 -66 -182 -5 -7 -7 -13 -4 -13 5 0 -10
-39 -65 -160 -11 -25 -36 -70 -56 -100 -19 -30 -47 -73 -61 -95 -14 -22 -29
-46 -34 -52 -8 -10 107 -13 564 -13 l574 0 -65 61 c-247 229 -353 347 -352
392 0 21 41 162 126 442 20 66 38 129 41 140 3 12 13 45 23 75 11 30 20 60 22
65 3 13 3 12 45 155 20 69 47 159 60 200 13 41 42 136 65 210 23 74 51 162 62
195 10 33 21 67 23 75 3 13 62 208 87 285 5 17 11 37 13 45 2 8 16 53 31 100
15 47 29 90 30 95 11 41 37 125 64 210 17 55 33 105 34 110 1 6 11 37 21 70
10 33 19 62 20 65 1 5 27 90 30 100 1 3 4 12 8 20 3 8 11 35 18 60 16 60 11
42 74 245 31 99 58 185 59 190 1 6 7 24 13 40 6 17 41 129 78 250 37 121 69
227 72 235 8 18 6 12 27 85 23 76 75 242 86 275 8 22 62 197 65 210 1 3 4 12
8 20 5 15 48 155 53 175 1 6 21 69 44 140 23 72 43 137 45 145 2 8 8 27 14 42
6 16 7 28 4 28 -4 0 -2 5 5 12 7 7 12 22 12 33 0 12 3 25 8 29 4 4 7 11 7 14
1 4 16 54 34 112 18 58 34 110 36 115 1 6 5 17 8 25 3 8 12 35 18 60 15 54 14
51 22 70 7 20 30 92 33 105 3 14 274 867 281 885 3 8 7 20 8 25 5 18 37 117
75 230 23 69 43 110 51 110 13 0 90 -135 83 -144 -2 -2 3 -15 10 -30 15 -29
183 -530 241 -716 20 -66 40 -127 44 -135 10 -19 24 -78 19 -83 -2 -2 2 -10 8
-18 6 -8 28 -70 48 -139 20 -69 41 -134 46 -145 10 -23 41 -120 44 -138 2 -13
24 -82 33 -107 3 -8 7 -19 9 -25 1 -5 17 -55 34 -110 17 -55 41 -131 52 -170
11 -38 24 -77 28 -86 7 -13 23 -63 36 -114 1 -5 21 -68 44 -140 23 -71 46
-143 50 -160 5 -16 36 -118 70 -225 34 -107 64 -204 67 -215 3 -11 9 -29 13
-40 5 -11 19 -54 31 -95 13 -41 23 -77 24 -80 1 -3 4 -12 7 -20 5 -14 50 -158
53 -170 1 -3 10 -32 20 -65 11 -33 20 -62 20 -65 1 -3 4 -12 8 -20 3 -8 21
-67 41 -130 19 -63 48 -158 64 -210 54 -170 133 -424 152 -485 10 -33 32 -105
50 -160 17 -55 42 -134 55 -175 13 -41 42 -133 64 -205 23 -71 43 -137 46
-145 8 -31 44 -147 65 -214 12 -38 23 -78 25 -89 3 -10 9 -25 16 -33 6 -8 9
-14 6 -14 -3 0 -2 -12 3 -27 22 -71 122 -399 124 -408 2 -5 6 -17 9 -25 4 -8
13 -40 21 -70 8 -30 31 -109 51 -175 20 -66 38 -127 40 -135 2 -8 19 -71 38
-140 34 -120 65 -241 73 -284 2 -12 7 -34 11 -51 20 -90 27 -205 14 -252 -9
-31 -25 -54 -66 -89 -71 -60 -72 -80 -2 -91 28 -5 238 -10 466 -12 l414 -2
-61 63 c-118 123 -134 144 -177 233 -37 77 -52 111 -60 135 -2 7 -22 58 -39
100 -8 19 -33 87 -56 150 -23 63 -45 124 -50 135 -34 83 -310 872 -314 899 -1
6 -4 16 -7 21 -4 6 -16 42 -28 80 -13 39 -26 79 -31 90 -5 11 -23 65 -40 120
-17 55 -35 109 -40 120 -4 11 -22 65 -39 120 -18 55 -36 109 -40 120 -5 11
-19 54 -31 95 -12 41 -26 84 -30 95 -15 38 -23 60 -26 72 -2 13 -81 257 -91
283 -3 8 -7 20 -9 25 -1 6 -23 75 -49 155 -25 80 -53 168 -62 195 -9 28 -19
59 -24 70 -9 23 -70 215 -73 230 -3 14 -96 306 -103 325 -3 8 -7 20 -8 26 -2
7 -17 56 -35 110 -18 55 -33 104 -34 109 -1 6 -19 63 -40 129 -21 65 -39 123
-40 130 -1 6 -4 16 -7 21 -4 6 -10 24 -14 40 -5 17 -9 32 -10 35 -1 3 -5 19
-10 35 -4 17 -10 35 -14 40 -3 6 -6 15 -7 20 -2 11 -69 233 -84 275 -16 48
-79 255 -86 285 -4 17 -9 35 -13 40 -3 6 -6 15 -7 20 -1 6 -32 108 -68 227
-76 251 -226 756 -231 778 -2 8 -4 15 -5 15 -1 0 -3 7 -5 15 -4 17 -41 148
-55 195 -23 77 -50 175 -65 230 -9 33 -19 67 -22 75 -4 8 -7 22 -9 30 -1 8
-10 42 -19 75 -10 33 -20 67 -21 75 -1 8 -10 40 -19 70 -9 30 -17 62 -20 70
-2 8 -12 49 -23 90 -12 41 -23 86 -26 100 -3 14 -13 52 -21 85 -9 33 -18 71
-20 85 -2 14 -9 40 -14 58 -5 17 -8 32 -6 32 3 0 0 11 -5 24 -5 14 -11 49 -14
78 -3 29 -8 69 -11 88 -6 42 -7 266 -1 295 2 11 7 49 11 85 4 36 8 67 10 70 2
3 6 26 10 50 16 106 149 624 182 710 3 8 8 23 9 33 2 9 20 71 40 138 19 67 37
128 39 137 2 10 13 46 25 82 28 86 71 231 75 252 2 9 8 25 13 35 6 10 10 20
10 23 0 10 22 88 52 180 17 52 33 103 35 114 3 10 21 71 41 135 21 64 39 121
40 126 1 6 23 78 49 160 26 83 48 155 50 160 1 6 4 17 8 25 3 8 19 62 37 120
17 58 35 113 40 122 6 10 10 23 10 29 0 7 19 71 42 143 23 72 43 133 43 136 2
12 60 194 97 305 21 66 41 127 43 135 16 66 195 602 275 825 34 94 63 175 64
180 4 12 8 22 58 145 66 160 139 276 179 284 69 14 87 32 69 67 -6 10 -8 19
-4 19 3 0 -13 24 -37 53 -55 68 -588 597 -593 589 -2 -4 -3 -72 -4 -152 0
-136 -6 -241 -17 -272 -2 -7 -7 -31 -10 -53 -3 -22 -10 -58 -16 -80 -6 -22
-13 -51 -15 -65 -2 -14 -8 -41 -14 -60 -5 -19 -25 -98 -44 -175 -28 -113 -72
-281 -101 -385 -2 -8 -15 -57 -29 -108 -29 -104 -90 -310 -142 -478 -19 -62
-37 -120 -39 -130 -2 -11 -23 -77 -45 -149 -23 -71 -45 -143 -50 -160 -13 -48
-78 -262 -111 -363 -16 -51 -31 -100 -32 -110 -2 -9 -14 -51 -27 -92 -13 -41
-24 -79 -26 -85 -1 -5 -16 -57 -32 -115 -81 -275 -132 -474 -132 -513 0 -73
-60 -222 -136 -340 -48 -75 -179 -211 -194 -202 -5 3 -11 1 -15 -5 -10 -17
-85 -3 -124 24 -100 70 -223 295 -386 711 -5 11 -7 23 -7 28 1 4 -3 7 -8 7 -6
0 -10 6 -10 14 0 7 -25 80 -56 162 -31 82 -57 154 -59 159 -1 6 -4 17 -7 25
-17 46 -69 196 -93 265 -15 44 -29 87 -33 95 -3 8 -6 17 -7 20 -2 9 -246 754
-255 780 -9 27 -98 311 -132 420 -22 72 -32 105 -44 135 -4 11 -8 25 -9 30 -2
6 -22 71 -46 145 -24 74 -43 137 -44 140 0 6 -25 89 -33 110 -8 22 -8 23 -16
55 -4 17 -11 39 -16 50 -8 18 -50 155 -202 650 -77 253 -168 559 -173 585 -2
8 -10 35 -18 60 -13 38 -50 175 -62 229 -3 9 -11 45 -20 81 -47 190 -56 333
-24 397 10 21 29 49 42 63 44 49 67 83 67 100 0 40 -42 43 -585 48 l-520 4 20
-23z"/>
</g>
</svg>
